<svg width="30" height="30" viewBox="0 0 30 30" fill="none" xmlns="http://www.w3.org/2000/svg">
<path fill-rule="evenodd" clip-rule="evenodd" d="M30 15C30 23.2843 23.2843 30 15 30C6.71573 30 0 23.2843 0 15C0 6.71573 6.71573 0 15 0C23.2843 0 30 6.71573 30 15ZM10.0447 13.6259C8.5421 14.282 6.99818 14.9561 5.58641 15.7337L5.58631 15.7338C4.84913 16.2736 5.82899 16.6553 6.74816 17.0134C6.89429 17.0704 7.03889 17.1267 7.17481 17.183C7.28791 17.2177 7.40294 17.2544 7.51949 17.2915C8.54178 17.6172 9.68171 17.9804 10.6742 17.4341C12.3045 16.4975 13.8431 15.4147 15.3805 14.3328C15.8842 13.9783 16.3878 13.6239 16.8944 13.2748C16.9182 13.2596 16.945 13.2423 16.9742 13.2233C17.4058 12.9435 18.3765 12.3143 18.0175 13.1813C17.1684 14.1098 16.259 14.9317 15.3446 15.7581C14.7284 16.3151 14.11 16.874 13.5062 17.469C12.9803 17.8963 12.4343 18.7555 13.0231 19.3538C14.3793 20.3032 15.7566 21.2296 17.1332 22.1554C17.5812 22.4567 18.0291 22.7579 18.4761 23.0599C19.2338 23.6648 20.4178 23.1755 20.5844 22.2303C20.6585 21.7955 20.7328 21.3608 20.8072 20.926C21.2182 18.5231 21.6293 16.1192 21.9925 13.7084C22.0419 13.3303 22.0978 12.9522 22.1538 12.5738C22.2895 11.6569 22.4254 10.7388 22.4678 9.81692C22.3584 8.89696 21.243 9.09924 20.6222 9.3061C17.4314 10.5202 14.2725 11.8243 11.1262 13.1515C10.7697 13.3094 10.4084 13.4671 10.0447 13.6259Z" fill="#9845EB"/>
</svg>
