<svg width="30" height="30" viewBox="0 0 30 30" fill="none" xmlns="http://www.w3.org/2000/svg">
<path d="M15.027 0.112488C6.75916 0.112488 0.0547791 6.92993 0.0547791 15.3403C0.0547791 22.0685 4.34478 27.7766 10.2937 29.7902C11.042 29.9312 11.3167 29.4599 11.3167 29.0577C11.3167 28.6945 11.3028 27.495 11.2963 26.2225C7.13106 27.1437 6.25213 24.4258 6.25213 24.4258C5.57106 22.6656 4.58974 22.1976 4.58974 22.1976C3.23131 21.2525 4.69213 21.2719 4.69213 21.2719C6.19561 21.3791 6.98726 22.8412 6.98726 22.8412C8.32263 25.1692 10.4898 24.4962 11.3442 24.1071C11.4786 23.1231 11.8666 22.4508 12.2948 22.0708C8.96924 21.6857 5.47337 20.38 5.47337 14.545C5.47337 12.8824 6.05825 11.524 7.01602 10.4575C6.86056 10.0737 6.34808 8.52516 7.16106 6.4276C7.16106 6.4276 8.41833 6.01833 11.2795 7.98854C12.4738 7.65114 13.7546 7.48193 15.027 7.47613C16.2994 7.48193 17.5812 7.65114 18.7778 7.98854C21.6354 6.01833 22.891 6.4276 22.891 6.4276C23.7059 8.52516 23.1932 10.0737 23.0378 10.4575C23.9978 11.524 24.5787 12.8824 24.5787 14.545C24.5787 20.3938 21.0761 21.6817 17.7421 22.0587C18.2792 22.5312 18.7577 23.458 18.7577 24.8787C18.7577 26.916 18.7403 28.5559 18.7403 29.0577C18.7403 29.4629 19.0098 29.9377 19.7687 29.7882C25.7144 27.7724 29.999 22.0662 29.999 15.3403C29.999 6.92993 23.2956 0.112488 15.027 0.112488" fill="#9845EB"/>
<path d="M5.72553 21.9764C5.69256 22.0523 5.57553 22.0748 5.46892 22.0228C5.36032 21.9732 5.29933 21.87 5.33454 21.7941C5.36677 21.7162 5.48404 21.6948 5.59239 21.7465C5.70123 21.7964 5.76322 21.9005 5.72553 21.9764" fill="#9845EB"/>
<path d="M6.33197 22.6644C6.26056 22.7317 6.12097 22.7004 6.02626 22.594C5.92833 22.4879 5.90998 22.3459 5.98238 22.2775C6.05602 22.2102 6.19139 22.2417 6.28957 22.3479C6.3875 22.4553 6.40659 22.5963 6.33197 22.6644" fill="#9845EB"/>
<path d="M6.92231 23.5415C6.83057 23.6063 6.68057 23.5455 6.58784 23.4101C6.49611 23.2747 6.49611 23.1123 6.58983 23.0472C6.6828 22.9821 6.83057 23.0406 6.92454 23.1751C7.01602 23.3125 7.01602 23.4751 6.92231 23.5415" fill="#9845EB"/>
<path d="M7.73107 24.3887C7.649 24.4808 7.47421 24.456 7.34628 24.3305C7.21537 24.2076 7.17892 24.0334 7.26124 23.9414C7.34429 23.8491 7.52008 23.875 7.649 23.9996C7.77892 24.1222 7.81859 24.2977 7.73107 24.3887" fill="#9845EB"/>
<path d="M8.84678 24.8807C8.81058 25 8.64223 25.0542 8.47264 25.0035C8.3033 24.9513 8.19248 24.8116 8.22669 24.6911C8.2619 24.571 8.43099 24.5145 8.60182 24.5688C8.77091 24.6207 8.88198 24.7594 8.84678 24.8807" fill="#9845EB"/>
<path d="M10.072 24.972C10.0763 25.0976 9.93245 25.2017 9.75443 25.2038C9.57543 25.208 9.43063 25.1064 9.42865 24.9829C9.42865 24.856 9.56923 24.7529 9.74824 24.7498C9.92625 24.7463 10.072 24.8472 10.072 24.972" fill="#9845EB"/>
<path d="M11.2123 24.7745C11.2336 24.8971 11.1099 25.0229 10.9331 25.0562C10.7593 25.0887 10.5984 25.0131 10.5764 24.8915C10.5548 24.7659 10.6807 24.6401 10.8543 24.6076C11.0313 24.5763 11.1897 24.6499 11.2123 24.7745" fill="#9845EB"/>
</svg>
