<svg width="85" height="86" viewBox="0 0 85 86" fill="none" xmlns="http://www.w3.org/2000/svg">
<g filter="url(#filter0_d_3_44)">
<rect x="1" width="75" height="75" rx="20" fill="#9845EB"/>
<path d="M12.1009 35V20.4545H18.1094C19.1984 20.4545 20.1383 20.6676 20.929 21.0938C21.7244 21.5152 22.3376 22.1046 22.7685 22.8622C23.1993 23.6151 23.4148 24.491 23.4148 25.4901C23.4148 26.4938 23.1946 27.3722 22.7543 28.125C22.3187 28.8731 21.696 29.4531 20.8864 29.8651C20.0767 30.277 19.1155 30.483 18.0028 30.483H14.2955V27.7131H17.3494C17.8797 27.7131 18.3224 27.6207 18.6776 27.4361C19.0374 27.2514 19.3097 26.9934 19.4943 26.6619C19.679 26.3258 19.7713 25.9351 19.7713 25.4901C19.7713 25.0402 19.679 24.652 19.4943 24.3253C19.3097 23.9938 19.0374 23.7382 18.6776 23.5582C18.3177 23.3783 17.875 23.2884 17.3494 23.2884H15.6165V35H12.1009ZM32.1861 30.2912V24.0909H35.652V35H32.3423V32.9688H32.2287C31.9872 33.6364 31.5753 34.1667 30.9929 34.5597C30.4152 34.9479 29.7169 35.142 28.8977 35.142C28.1544 35.142 27.5009 34.9716 26.9375 34.6307C26.3741 34.2898 25.9361 33.8139 25.6236 33.2031C25.3111 32.5876 25.1525 31.8679 25.1477 31.044V24.0909H28.6207V30.3622C28.6255 30.9541 28.7817 31.4205 29.0895 31.7614C29.3973 32.1023 29.8163 32.2727 30.3466 32.2727C30.6922 32.2727 31.0024 32.197 31.277 32.0455C31.5563 31.8892 31.7765 31.6643 31.9375 31.3707C32.1032 31.0724 32.1861 30.7126 32.1861 30.2912ZM37.8626 35V24.0909H41.2362V26.0795H41.3498C41.5487 25.3598 41.873 24.8248 42.3228 24.4744C42.7726 24.1193 43.2958 23.9418 43.8924 23.9418C44.0534 23.9418 44.2191 23.9536 44.3896 23.9773C44.56 23.9962 44.7186 24.027 44.8654 24.0696V27.0881C44.6997 27.0312 44.4819 26.9863 44.212 26.9531C43.9469 26.92 43.7101 26.9034 43.5018 26.9034C43.0898 26.9034 42.7182 26.9957 42.3867 27.1804C42.06 27.3603 41.802 27.6136 41.6126 27.9403C41.4279 28.2623 41.3356 28.6411 41.3356 29.0767V35H37.8626ZM46.2805 39.0909V24.0909H49.718V25.9588H49.8246C49.9666 25.6274 50.1679 25.3078 50.4283 25C50.6934 24.6922 51.0296 24.4413 51.4368 24.2472C51.8487 24.0483 52.3411 23.9489 52.9141 23.9489C53.6716 23.9489 54.3795 24.1477 55.0376 24.5455C55.7005 24.9432 56.2356 25.5563 56.6428 26.3849C57.05 27.2135 57.2536 28.2694 57.2536 29.5526C57.2536 30.7884 57.0571 31.8229 56.6641 32.6562C56.2758 33.4896 55.7502 34.1146 55.0874 34.5312C54.4292 34.9479 53.6977 35.1562 52.8928 35.1562C52.3435 35.1562 51.8677 35.0663 51.4652 34.8864C51.0627 34.7064 50.7242 34.4697 50.4496 34.1761C50.1797 33.8826 49.9714 33.5677 49.8246 33.2315H49.7536V39.0909H46.2805ZM49.6825 29.5455C49.6825 30.1326 49.7607 30.6439 49.9169 31.0795C50.0779 31.5152 50.3075 31.8537 50.6058 32.0952C50.9089 32.3319 51.2711 32.4503 51.6925 32.4503C52.1186 32.4503 52.4808 32.3319 52.7791 32.0952C53.0774 31.8537 53.3023 31.5152 53.4538 31.0795C53.6101 30.6439 53.6882 30.1326 53.6882 29.5455C53.6882 28.9583 53.6101 28.4493 53.4538 28.0185C53.3023 27.5876 53.0774 27.2538 52.7791 27.017C52.4856 26.7803 52.1233 26.6619 51.6925 26.6619C51.2663 26.6619 50.9041 26.7779 50.6058 27.0099C50.3075 27.242 50.0779 27.5734 49.9169 28.0043C49.7607 28.4351 49.6825 28.9489 49.6825 29.5455ZM24.4801 44.4545V59H21.4972L15.7088 50.6051H15.6165V59H12.1009V44.4545H15.1264L20.8509 52.8352H20.9716V44.4545H24.4801ZM31.7901 59.206C30.649 59.206 29.6642 58.9811 28.8356 58.5312C28.0117 58.0767 27.3772 57.4304 26.9322 56.5923C26.4918 55.7495 26.2717 54.7481 26.2717 53.5881C26.2717 52.4612 26.4942 51.4763 26.9393 50.6335C27.3844 49.786 28.0117 49.1278 28.8214 48.6591C29.631 48.1856 30.5851 47.9489 31.6836 47.9489C32.4601 47.9489 33.1703 48.0696 33.8143 48.3111C34.4582 48.5526 35.0146 48.91 35.4833 49.3835C35.9521 49.857 36.3166 50.4418 36.5771 51.1378C36.8375 51.8291 36.9677 52.6222 36.9677 53.517V54.3835H27.4862V52.3665H33.7362C33.7314 51.9972 33.6438 51.6681 33.4734 51.3793C33.3029 51.0904 33.0685 50.8655 32.7702 50.7045C32.4767 50.5388 32.1381 50.456 31.7546 50.456C31.3664 50.456 31.0183 50.5436 30.7106 50.7188C30.4028 50.8892 30.159 51.1236 29.979 51.4219C29.7991 51.7154 29.7044 52.0492 29.695 52.4233V54.4759C29.695 54.9209 29.7826 55.3116 29.9577 55.6477C30.1329 55.9792 30.3815 56.2372 30.7035 56.4219C31.0254 56.6065 31.409 56.6989 31.854 56.6989C32.1618 56.6989 32.4412 56.6562 32.6921 56.571C32.9431 56.4858 33.1585 56.3603 33.3384 56.1946C33.5183 56.0289 33.6533 55.8253 33.7433 55.5838L36.9322 55.6761C36.7996 56.3911 36.5084 57.0137 36.0586 57.544C35.6135 58.0696 35.0288 58.4792 34.3043 58.7727C33.5799 59.0616 32.7418 59.206 31.7901 59.206ZM40.6626 59L37.8217 48.0909H41.3089L42.7791 55.0795H42.8714L44.4482 48.0909H47.8501L49.4695 55.0298H49.5618L50.9893 48.0909H54.4766L51.6286 59H47.9141L46.2095 52.6435H46.0888L44.3842 59H40.6626ZM65.3945 51.4219L62.2056 51.5071C62.1725 51.2798 62.0825 51.0786 61.9357 50.9034C61.7889 50.7235 61.5972 50.5838 61.3604 50.4844C61.1284 50.3802 60.8585 50.3281 60.5508 50.3281C60.1483 50.3281 59.805 50.4086 59.521 50.5696C59.2416 50.7306 59.1043 50.9484 59.109 51.223C59.1043 51.4361 59.1895 51.6207 59.3647 51.777C59.5446 51.9332 59.8642 52.0587 60.3235 52.1534L62.4258 52.5511C63.5148 52.7595 64.3245 53.1051 64.8548 53.5881C65.3898 54.071 65.6597 54.7102 65.6644 55.5057C65.6597 56.2538 65.4371 56.9048 64.9968 57.4588C64.5612 58.0128 63.9646 58.4437 63.207 58.7514C62.4495 59.0545 61.583 59.206 60.6076 59.206C59.0498 59.206 57.8211 58.8864 56.9215 58.2472C56.0266 57.6032 55.5153 56.7415 55.3874 55.6619L58.8178 55.5767C58.8936 55.9744 59.0901 56.2775 59.4073 56.4858C59.7246 56.6941 60.1294 56.7983 60.6218 56.7983C61.0669 56.7983 61.4291 56.7154 61.7085 56.5497C61.9878 56.384 62.1299 56.1638 62.1346 55.8892C62.1299 55.643 62.021 55.4465 61.8079 55.2997C61.5948 55.1482 61.261 55.0298 60.8065 54.9446L58.9031 54.5824C57.8093 54.3835 56.9949 54.0166 56.4599 53.4815C55.9248 52.9418 55.6597 52.2552 55.6644 51.4219C55.6597 50.6927 55.8538 50.0701 56.2468 49.554C56.6398 49.0331 57.1985 48.6354 57.9229 48.3608C58.6474 48.0862 59.502 47.9489 60.4869 47.9489C61.9641 47.9489 63.1289 48.259 63.9812 48.8793C64.8335 49.4948 65.3046 50.3423 65.3945 51.4219Z" fill="white"/>
<path d="M60 5L60.186 10.0869C60.2998 13.199 62.7637 15.6949 65.8344 15.8086L71 16L65.8344 16.1914C62.7637 16.3051 60.2998 18.801 60.186 21.9131L60 27L59.814 21.9131C59.7002 18.801 57.2363 16.3051 54.1656 16.1914L49 16L54.1656 15.8086C57.2363 15.6949 59.7002 13.199 59.814 10.0869L60 5Z" fill="white"/>
</g>
<defs>
<filter id="filter0_d_3_44" x="0" y="0" width="85" height="86" filterUnits="userSpaceOnUse" color-interpolation-filters="sRGB">
<feFlood flood-opacity="0" result="BackgroundImageFix"/>
<feColorMatrix in="SourceAlpha" type="matrix" values="0 0 0 0 0 0 0 0 0 0 0 0 0 0 0 0 0 0 127 0" result="hardAlpha"/>
<feOffset dx="4" dy="6"/>
<feGaussianBlur stdDeviation="2.5"/>
<feComposite in2="hardAlpha" operator="out"/>
<feColorMatrix type="matrix" values="0 0 0 0 0 0 0 0 0 0 0 0 0 0 0 0 0 0 0.25 0"/>
<feBlend mode="normal" in2="BackgroundImageFix" result="effect1_dropShadow_3_44"/>
<feBlend mode="normal" in="SourceGraphic" in2="effect1_dropShadow_3_44" result="shape"/>
</filter>
</defs>
</svg>
