<svg width="75" height="75" viewBox="0 0 75 75" fill="none" xmlns="http://www.w3.org/2000/svg">
<rect width="75" height="75" rx="20" fill="white"/>
<path d="M11.1009 35V20.4545H17.1094C18.1984 20.4545 19.1383 20.6676 19.929 21.0938C20.7244 21.5152 21.3376 22.1046 21.7685 22.8622C22.1993 23.6151 22.4148 24.491 22.4148 25.4901C22.4148 26.4938 22.1946 27.3722 21.7543 28.125C21.3187 28.8731 20.696 29.4531 19.8864 29.8651C19.0767 30.277 18.1155 30.483 17.0028 30.483H13.2955V27.7131H16.3494C16.8797 27.7131 17.3224 27.6207 17.6776 27.4361C18.0374 27.2514 18.3097 26.9934 18.4943 26.6619C18.679 26.3258 18.7713 25.9351 18.7713 25.4901C18.7713 25.0402 18.679 24.652 18.4943 24.3253C18.3097 23.9938 18.0374 23.7382 17.6776 23.5582C17.3177 23.3783 16.875 23.2884 16.3494 23.2884H14.6165V35H11.1009ZM31.1861 30.2912V24.0909H34.652V35H31.3423V32.9688H31.2287C30.9872 33.6364 30.5753 34.1667 29.9929 34.5597C29.4152 34.9479 28.7169 35.142 27.8977 35.142C27.1544 35.142 26.5009 34.9716 25.9375 34.6307C25.3741 34.2898 24.9361 33.8139 24.6236 33.2031C24.3111 32.5876 24.1525 31.8679 24.1477 31.044V24.0909H27.6207V30.3622C27.6255 30.9541 27.7817 31.4205 28.0895 31.7614C28.3973 32.1023 28.8163 32.2727 29.3466 32.2727C29.6922 32.2727 30.0024 32.197 30.277 32.0455C30.5563 31.8892 30.7765 31.6643 30.9375 31.3707C31.1032 31.0724 31.1861 30.7126 31.1861 30.2912ZM36.8626 35V24.0909H40.2362V26.0795H40.3498C40.5487 25.3598 40.873 24.8248 41.3228 24.4744C41.7726 24.1193 42.2958 23.9418 42.8924 23.9418C43.0534 23.9418 43.2191 23.9536 43.3896 23.9773C43.56 23.9962 43.7186 24.027 43.8654 24.0696V27.0881C43.6997 27.0312 43.4819 26.9863 43.212 26.9531C42.9469 26.92 42.7101 26.9034 42.5018 26.9034C42.0898 26.9034 41.7182 26.9957 41.3867 27.1804C41.06 27.3603 40.802 27.6136 40.6126 27.9403C40.4279 28.2623 40.3356 28.6411 40.3356 29.0767V35H36.8626ZM45.2805 39.0909V24.0909H48.718V25.9588H48.8246C48.9666 25.6274 49.1679 25.3078 49.4283 25C49.6934 24.6922 50.0296 24.4413 50.4368 24.2472C50.8487 24.0483 51.3411 23.9489 51.9141 23.9489C52.6716 23.9489 53.3795 24.1477 54.0376 24.5455C54.7005 24.9432 55.2356 25.5563 55.6428 26.3849C56.05 27.2135 56.2536 28.2694 56.2536 29.5526C56.2536 30.7884 56.0571 31.8229 55.6641 32.6562C55.2758 33.4896 54.7502 34.1146 54.0874 34.5312C53.4292 34.9479 52.6977 35.1562 51.8928 35.1562C51.3435 35.1562 50.8677 35.0663 50.4652 34.8864C50.0627 34.7064 49.7242 34.4697 49.4496 34.1761C49.1797 33.8826 48.9714 33.5677 48.8246 33.2315H48.7536V39.0909H45.2805ZM48.6825 29.5455C48.6825 30.1326 48.7607 30.6439 48.9169 31.0795C49.0779 31.5152 49.3075 31.8537 49.6058 32.0952C49.9089 32.3319 50.2711 32.4503 50.6925 32.4503C51.1186 32.4503 51.4808 32.3319 51.7791 32.0952C52.0774 31.8537 52.3023 31.5152 52.4538 31.0795C52.6101 30.6439 52.6882 30.1326 52.6882 29.5455C52.6882 28.9583 52.6101 28.4493 52.4538 28.0185C52.3023 27.5876 52.0774 27.2538 51.7791 27.017C51.4856 26.7803 51.1233 26.6619 50.6925 26.6619C50.2663 26.6619 49.9041 26.7779 49.6058 27.0099C49.3075 27.242 49.0779 27.5734 48.9169 28.0043C48.7607 28.4351 48.6825 28.9489 48.6825 29.5455ZM23.4801 44.4545V59H20.4972L14.7088 50.6051H14.6165V59H11.1009V44.4545H14.1264L19.8509 52.8352H19.9716V44.4545H23.4801ZM30.7901 59.206C29.649 59.206 28.6642 58.9811 27.8356 58.5312C27.0117 58.0767 26.3772 57.4304 25.9322 56.5923C25.4918 55.7495 25.2717 54.7481 25.2717 53.5881C25.2717 52.4612 25.4942 51.4763 25.9393 50.6335C26.3844 49.786 27.0117 49.1278 27.8214 48.6591C28.631 48.1856 29.5851 47.9489 30.6836 47.9489C31.4601 47.9489 32.1703 48.0696 32.8143 48.3111C33.4582 48.5526 34.0146 48.91 34.4833 49.3835C34.9521 49.857 35.3166 50.4418 35.5771 51.1378C35.8375 51.8291 35.9677 52.6222 35.9677 53.517V54.3835H26.4862V52.3665H32.7362C32.7314 51.9972 32.6438 51.6681 32.4734 51.3793C32.3029 51.0904 32.0685 50.8655 31.7702 50.7045C31.4767 50.5388 31.1381 50.456 30.7546 50.456C30.3664 50.456 30.0183 50.5436 29.7106 50.7188C29.4028 50.8892 29.159 51.1236 28.979 51.4219C28.7991 51.7154 28.7044 52.0492 28.695 52.4233V54.4759C28.695 54.9209 28.7826 55.3116 28.9577 55.6477C29.1329 55.9792 29.3815 56.2372 29.7035 56.4219C30.0254 56.6065 30.409 56.6989 30.854 56.6989C31.1618 56.6989 31.4412 56.6562 31.6921 56.571C31.9431 56.4858 32.1585 56.3603 32.3384 56.1946C32.5183 56.0289 32.6533 55.8253 32.7433 55.5838L35.9322 55.6761C35.7996 56.3911 35.5084 57.0137 35.0586 57.544C34.6135 58.0696 34.0288 58.4792 33.3043 58.7727C32.5799 59.0616 31.7418 59.206 30.7901 59.206ZM39.6626 59L36.8217 48.0909H40.3089L41.7791 55.0795H41.8714L43.4482 48.0909H46.8501L48.4695 55.0298H48.5618L49.9893 48.0909H53.4766L50.6286 59H46.9141L45.2095 52.6435H45.0888L43.3842 59H39.6626ZM64.3945 51.4219L61.2056 51.5071C61.1725 51.2798 61.0825 51.0786 60.9357 50.9034C60.7889 50.7235 60.5972 50.5838 60.3604 50.4844C60.1284 50.3802 59.8585 50.3281 59.5508 50.3281C59.1483 50.3281 58.805 50.4086 58.521 50.5696C58.2416 50.7306 58.1043 50.9484 58.109 51.223C58.1043 51.4361 58.1895 51.6207 58.3647 51.777C58.5446 51.9332 58.8642 52.0587 59.3235 52.1534L61.4258 52.5511C62.5148 52.7595 63.3245 53.1051 63.8548 53.5881C64.3898 54.071 64.6597 54.7102 64.6644 55.5057C64.6597 56.2538 64.4371 56.9048 63.9968 57.4588C63.5612 58.0128 62.9646 58.4437 62.207 58.7514C61.4495 59.0545 60.583 59.206 59.6076 59.206C58.0498 59.206 56.8211 58.8864 55.9215 58.2472C55.0266 57.6032 54.5153 56.7415 54.3874 55.6619L57.8178 55.5767C57.8936 55.9744 58.0901 56.2775 58.4073 56.4858C58.7246 56.6941 59.1294 56.7983 59.6218 56.7983C60.0669 56.7983 60.4291 56.7154 60.7085 56.5497C60.9878 56.384 61.1299 56.1638 61.1346 55.8892C61.1299 55.643 61.021 55.4465 60.8079 55.2997C60.5948 55.1482 60.261 55.0298 59.8065 54.9446L57.9031 54.5824C56.8093 54.3835 55.9949 54.0166 55.4599 53.4815C54.9248 52.9418 54.6597 52.2552 54.6644 51.4219C54.6597 50.6927 54.8538 50.0701 55.2468 49.554C55.6398 49.0331 56.1985 48.6354 56.9229 48.3608C57.6474 48.0862 58.502 47.9489 59.4869 47.9489C60.9641 47.9489 62.1289 48.259 62.9812 48.8793C63.8335 49.4948 64.3046 50.3423 64.3945 51.4219Z" fill="#9845EB"/>
<path d="M59 5L59.186 10.0869C59.2998 13.199 61.7637 15.6949 64.8344 15.8086L70 16L64.8344 16.1914C61.7637 16.3051 59.2998 18.801 59.186 21.9131L59 27L58.814 21.9131C58.7002 18.801 56.2363 16.3051 53.1656 16.1914L48 16L53.1656 15.8086C56.2363 15.6949 58.7002 13.199 58.814 10.0869L59 5Z" fill="#9845EB"/>
</svg>
