<svg width="30" height="30" viewBox="0 0 30 30" fill="none" xmlns="http://www.w3.org/2000/svg">
<path fill-rule="evenodd" clip-rule="evenodd" d="M0 15C0 23.2843 6.71573 30 15 30C23.2843 30 30 23.2843 30 15C30 6.71573 23.2843 0 15 0C6.71573 0 0 6.71573 0 15ZM18.4263 20.6434C17.1321 20.6434 15.9412 20.2004 14.9964 19.4576C14.0515 20.2004 12.8606 20.6434 11.5665 20.6434C8.49545 20.6434 6.0059 18.1491 6.0059 15.0723C6.0059 11.9955 8.49545 9.50121 11.5665 9.50121C12.8606 9.50121 14.0515 9.94416 14.9964 10.687C15.9412 9.94416 17.1321 9.50121 18.4263 9.50121C21.4973 9.50121 23.9868 11.9955 23.9868 15.0723C23.9868 18.1491 21.4973 20.6434 18.4263 20.6434Z" fill="#9845EB"/>
<path d="M14.9964 10.6867C13.6989 11.7066 12.8661 13.2914 12.8661 15.0718C12.8661 16.8521 13.6989 18.4382 14.9964 19.4581C16.2938 18.4382 17.1266 16.8521 17.1266 15.0718C17.1266 13.2914 16.2938 11.7066 14.9964 10.6867V10.6867Z" fill="#9845EB"/>
</svg>
