<svg width="35" height="35" viewBox="0 0 35 35" fill="none" xmlns="http://www.w3.org/2000/svg">
<path d="M24.0625 4.375C21.525 4.375 19.0896 5.55625 17.5 7.41562C15.9104 5.55625 13.475 4.375 10.9375 4.375C6.43856 4.375 2.91669 7.89687 2.91669 12.3958C2.91669 17.901 7.87502 22.4 15.3854 29.2177L17.5 31.1354L19.6146 29.2177C27.125 22.4 32.0834 17.901 32.0834 12.3958C32.0834 7.89687 28.5615 4.375 24.0625 4.375ZM17.6531 27.0594L17.5 27.1979L17.3469 27.0594C10.4125 20.7667 5.83335 16.6104 5.83335 12.3958C5.83335 9.48646 8.02815 7.29167 10.9375 7.29167C13.1834 7.29167 15.3709 8.74271 16.1365 10.7333H18.8563C19.6292 8.74271 21.8167 7.29167 24.0625 7.29167C26.9719 7.29167 29.1667 9.48646 29.1667 12.3958C29.1667 16.6104 24.5875 20.7667 17.6531 27.0594Z" fill="#9845EB"/>
</svg>
